<svg width="170" height="170" viewBox="0 0 170 170" fill="none" xmlns="http://www.w3.org/2000/svg">
<path d="M170 54H114V0H122L170 47V54Z" fill="#D9D9D9"/>
<path d="M20 144C20 147.314 22.6863 150 26 150H144C147.314 150 150 147.314 150 144V119.016L170 107.716V144C170 158.359 158.359 170 144 170H26C11.6406 170 0 158.359 0 144V115.036L20 103.736V144ZM104 20H26C22.6863 20 20 22.6863 20 26V54.2119L0 65.5107V26C1.03088e-06 11.6406 11.6406 0 26 0H104V20Z" fill="#46E8A9"/>
<path d="M167.908 66C167.908 101.453 160.279 117.431 103.74 116.433V125.992C103.74 130.187 98.8861 132.517 95.6131 129.894L69.0174 108.579C67.5032 107.366 67.5218 105.056 69.0555 103.867L95.6765 83.2344C98.9621 80.688 103.74 83.0297 103.74 87.1865V96.46C143.251 96.8428 155.043 90.6607 153.997 66H167.908Z" fill="#46E8A9"/>
<path d="M62.3428 48.9975C62.3428 44.9427 66.9156 42.5743 70.2275 44.9135L98.6035 64.9555C100.279 66.1392 100.299 68.6183 98.6426 69.8285L70.292 90.5346C66.9883 92.9475 62.3428 90.5875 62.3428 86.4965V79.3832C24.9618 79.4366 16.6344 85.8647 0 109.058V84.0932C14.704 61.5023 27.747 56.3483 62.3428 56.3022V48.9975Z" fill="#46E8A9"/>
</svg>
